{"title":"Lynyrd Skynyrd Live at Austin City Limits.avi","uid":5590189,"size":521184294,"categoryP":"video","categoryS":"music_videos","magnet":"?xt=urn:btih:868d410b70959186008524560cf17dac8ec06db4&amp;dn=Lynyrd+Skynyrd+Live+at+Austin+City+Limits.avi&amp;tr=udp%3A%2F%2Ftracker.openbittorrent.com%3A80&amp;tr=udp%3A%2F%2Fopen.demonii.com%3A1337&amp;tr=udp%3A%2F%2Ftracker.coppersurfer.tk%3A6969&amp;tr=udp%3A%2F%2Fexodus.desync.com%3A6969","seeders":2,"leechers":1,"uploader":"tpbsavior","files":1,"time":1274838753,"description":"Skynyrd live @ Austin City Limits\n\nDec 1999 \n\n\nFormat                           : AVI\nFormat/Info                      : Audio Video Interleave\nFile size                        : 497 MiB\nDuration                         : 1h 7mn\nOverall bit rate                 : 1 031 Kbps\n\nVideo\nID                               : 0\nFormat                           : MPEG-4 Visual\nFormat settings, BVOP            : Yes\nFormat settings, QPel            : No\nFormat settings, GMC             : No warppoints\nFormat settings, Matrix          : Default (H.263)\nMuxing mode                      : Packed bitstream\nCodec ID                         : DX50\nCodec ID/Hint                    : DivX 5\nDuration                         : 1h 7mn\nBit rate                         : 892 Kbps\nWidth                            : 632 pixels\nHeight                           : 480 pixels\nDisplay aspect ratio             : 4:3\nFrame rate                       : 29.970 fps\nResolution                       : 24 bits\nColorimetry                      : 4:2:0\nScan type                        : Progressive\nBits/(Pixel*Frame)               : 0.098\nStream size                      : 430 MiB (86%)\nTitle                            : Video \nWriting library                  : DivX 3330\n\nAudio\nID                               : 1\nFormat                           : MPEG Audio\nFormat version                   : Version 1\nFormat profile                   : Layer 3\nCodec ID                         : 55\nCodec ID/Hint                    : MP3\nDuration                         : 1h 7mn\nBit rate mode                    : Constant\nBit rate                         : 128 Kbps\nChannel(s)                       : 2 channels\nSampling rate                    : 44.1 KHz\nResolution                       : 16 bits\nStream size                      : 61.7 MiB (12%)\nAlignment                        : Split accross interleaves\nInterleave, duration             : 33 ms (1.00 video frame)\nInterleave, preload duration     : 500 ms\nTitle                            : Audio \nWriting library                  : LAME3.92\n\n\n\n\n","torrent":{"xt":"urn:btih:868d410b70959186008524560cf17dac8ec06db4","amp;dn":"Lynyrd+Skynyrd+Live+at+Austin+City+Limits.avi","amp;tr":["udp%3A%2F%2Ftracker.openbittorrent.com%3A80","udp%3A%2F%2Fopen.demonii.com%3A1337","udp%3A%2F%2Ftracker.coppersurfer.tk%3A6969","udp%3A%2F%2Fexodus.desync.com%3A6969"],"infoHash":"868d410b70959186008524560cf17dac8ec06db4","infoHashBuffer":{"type":"Buffer","data":[134,141,65,11,112,149,145,134,0,133,36,86,12,241,125,172,142,192,109,180]},"announce":[],"urlList":[]}}